<svg id="SvgjsSvg1001" width="288" height="288" xmlns="http://www.w3.org/2000/svg" version="1.1" xmlns:xlink="http://www.w3.org/1999/xlink" xmlns:svgjs="http://svgjs.com/svgjs"><defs id="SvgjsDefs1002"></defs><g id="SvgjsG1008"><svg xmlns="http://www.w3.org/2000/svg" width="288" height="288" version="1.0" viewBox="0 0 59 46"><g transform="matrix(.1 0 0 -.1 0 46)" fill="#c5c5c5" class="color000 svgShape"><path d="M387 450 l-179 -5 -13 -32 -14 -33 119 0 119 0 -23 -52 c-13 -29 -35-77 -49 -106 l-25 -52 62 0 62 0 62 141 c35 78 61 142 60 143 -2 0 -83 -1
-181 -4z" fill="#c5c5c5" class="color000 svgShape"></path><path d="M78 163 c-31 -71 -60 -136 -63 -145 -7 -17 6 -18 172 -18 l179 0 17
35 17 35 -115 0 c-91 0 -115 3 -115 14 0 7 20 57 45 110 l44 96 -62 0 -62 0
-57 -127z" fill="#c5c5c5" class="color000 svgShape"></path></g></svg></g></svg>