<?xml version="1.0" standalone="no"?>
<!DOCTYPE svg PUBLIC "-//W3C//DTD SVG 20010904//EN"
 "http://www.w3.org/TR/2001/REC-SVG-20010904/DTD/svg10.dtd">
<svg version="1.0" xmlns="http://www.w3.org/2000/svg"
 width="59.000000pt" height="46.000000pt" viewBox="0 0 59.000000 46.000000"
 preserveAspectRatio="xMidYMid meet">

<g transform="translate(0.000000,46.000000) scale(0.100000,-0.100000)"
fill="#000000" stroke="none">
<path d="M387 450 l-179 -5 -13 -32 -14 -33 119 0 119 0 -23 -52 c-13 -29 -35
-77 -49 -106 l-25 -52 62 0 62 0 62 141 c35 78 61 142 60 143 -2 0 -83 -1
-181 -4z"/>
<path d="M78 163 c-31 -71 -60 -136 -63 -145 -7 -17 6 -18 172 -18 l179 0 17
35 17 35 -115 0 c-91 0 -115 3 -115 14 0 7 20 57 45 110 l44 96 -62 0 -62 0
-57 -127z"/>
</g>
</svg>
